# xmcd
#
# Track frame offsets:
#	150
#	15723
#	34872
#	50582
#	63667
#	81027
#	97592
#	111208
#	126254
#	146984
#	166143
#	187931
#	209380
#	223468
#	239235
#
# Disc length: 3438
#
# Revision: 4
# Processed by: cddbd v1.5.1PL0 Copyright (c) Steve Scherf et al.
# Submitted via: tcd 2.0b
# Normalized: r3:TRMNUM
#
DISCID=e00d6c0f
DTITLE=Moulin Reuge
DYEAR=1900
DGENRE=
TTITLE0=nature boy
TTITLE1=Lady Marmalade 
TTITLE2=Because We Can
TTITLE3=Sparkling Diamonds
TTITLE4=Rhythm of the Night - Valeria
TTITLE5=Your Song
TTITLE6=Children of the Revolution
TTITLE7=One Day I'll Fly Away
TTITLE8=Diamond Dogs
TTITLE9=Elephant Love Medley
TTITLE10=Come What May
TTITLE11=Le Tango de Roxanne
TTITLE12=Compliante De La Butte
TTITLE13=Hindi Sad Diamonds
TTITLE14=Nature Boy
EXTD=
EXTT0=
EXTT1=Christina Aguilera, Pink, Mya and Lil' Kim
EXTT2=Fatboy Slim
EXTT3=
EXTT4=
EXTT5=
EXTT6=
EXTT7=
EXTT8=
EXTT9=
EXTT10=Ewan MacGregor and Nicole Kidman
EXTT11=Cast with Jose Feliciano
EXTT12=Rufus Wainwright
EXTT13=Nicole Kidman and Cast
EXTT14=
PLAYORDER=
